<?xml version="1.0" standalone="no"?>
<!DOCTYPE svg PUBLIC "-//W3C//DTD SVG 1.1//EN" "http://www.w3.org/Graphics/SVG/1.1/DTD/svg11.dtd" >
<svg xmlns="http://www.w3.org/2000/svg">
<metadata>
This is a custom SVG webfont generated by Fontspring.
</metadata>
<defs>
<font id="ProximaNovaRegularItalic" horiz-adv-x="1171" >
<font-face units-per-em="2048" ascent="1618" descent="-430" />
<missing-glyph horiz-adv-x="528" />
<glyph unicode=" "  horiz-adv-x="528" />
<glyph unicode="&#x09;" horiz-adv-x="528" />
<glyph unicode="&#xa0;" horiz-adv-x="528" />
<glyph unicode="!" horiz-adv-x="471" d="M31 82q0 51 36.5 87t88.5 36q43 0 72.5 -31t29.5 -74q0 -49 -37 -84.5t-86 -35.5q-45 0 -74.5 29.5t-29.5 72.5zM143 383l187 983h192l-250 -983h-129z" />
<glyph unicode="&#x22;" horiz-adv-x="702" d="M238 844q39 397 41 430q4 49 34.5 80.5t75.5 31.5q35 0 58.5 -24.5t23.5 -61.5q0 -6 -10 -47l-148 -409h-75zM539 844q39 397 41 430q4 49 33.5 80.5t74.5 31.5q35 0 59.5 -24.5t24.5 -61.5q0 -23 -12 -47l-146 -409h-75z" />
<glyph unicode="#" horiz-adv-x="1208" d="M14 371l60 108h219l227 408h-221l55 106h226l204 373h127l-206 -373h227l205 373h125l-207 -373h219l-53 -106h-224l-229 -408h227l-57 -108h-229l-205 -371h-125l207 371h-228l-204 -371h-127l206 371h-219zM418 479h225l227 408h-225z" />
<glyph unicode="$" horiz-adv-x="1214" d="M41 219l117 123q113 -158 315 -201l111 494q-63 25 -105.5 44t-93.5 52t-81 66.5t-51.5 84t-21.5 107.5q0 162 138.5 279.5t345.5 117.5q23 0 35 -2l43 189h125l-46 -203q227 -49 336 -199l-116 -118q-90 123 -254 166l-101 -449q80 -33 131.5 -60.5t108.5 -70.5 t86 -101.5t29 -129.5q0 -174 -134.5 -303.5t-363.5 -129.5q-4 0 -16.5 1t-16.5 1l-39 -182h-125l43 195q-133 25 -238.5 85t-160.5 144zM414 1012q0 -63 52 -106.5t157 -88.5l94 420h-21q-117 0 -199.5 -67.5t-82.5 -157.5zM596 127h12q147 0 224 78t77 176q0 68 -54 115 t-157 92z" />
<glyph unicode="%" horiz-adv-x="1497" d="M152 0l1173 1366h113l-1176 -1366h-110zM178 989q0 174 107.5 285.5t257.5 111.5q129 0 217 -76.5t88 -199.5q0 -174 -107.5 -285.5t-257.5 -111.5q-129 0 -217 76.5t-88 199.5zM301 999q0 -78 52.5 -131t133.5 -53q96 0 168 82t72 203q0 78 -53 130t-135 52 q-96 0 -167 -81t-71 -202zM727 252q0 174 108.5 285.5t256.5 111.5q129 0 218 -76.5t89 -199.5q0 -174 -108.5 -286t-256.5 -112q-129 0 -218 77t-89 200zM850 262q0 -78 52 -131t134 -53q96 0 168 82t72 202q0 78 -53.5 130.5t-135.5 52.5q-96 0 -166.5 -81t-70.5 -202z " />
<glyph unicode="&#x26;" horiz-adv-x="1312" d="M33 317q0 94 31.5 170t93 130.5t125 89t151.5 71.5q-47 135 -47 238q0 154 111.5 262t265.5 108q131 0 217 -64.5t86 -180.5q0 -49 -14.5 -94.5t-33 -77t-58 -64.5t-67.5 -52t-85 -46t-86 -38l-94 -38q37 -76 104 -192q70 -121 129 -211q129 139 217 299l119 -70 q-139 -211 -262 -338q66 -94 166 -219h-195q-51 63 -88 115q-184 -139 -375 -140q-180 0 -295.5 89t-115.5 253zM205 338q0 -113 73.5 -174.5t184.5 -61.5q135 0 282 117q-98 137 -145 225q-76 127 -121 228q-131 -59 -202.5 -136t-71.5 -198zM547 1016q0 -76 37 -180 q166 61 251 123.5t85 166.5q0 66 -42 103t-108 37q-84 0 -153.5 -67.5t-69.5 -182.5z" />
<glyph unicode="'" horiz-adv-x="407" d="M238 844q39 397 41 430q4 49 34.5 80.5t75.5 31.5q35 0 58.5 -24.5t23.5 -61.5q0 -6 -10 -47l-148 -409h-75z" />
<glyph unicode="(" horiz-adv-x="507" d="M51 186q0 317 136.5 633t390.5 584l79 -78q-444 -580 -444 -1196q0 -215 76 -475l-109 -62q-129 254 -129 594z" />
<glyph unicode=")" horiz-adv-x="507" d="M-152 -330q444 580 445 1194q0 217 -76 477l109 62q129 -254 129 -594q0 -317 -137.5 -631.5t-391.5 -585.5z" />
<glyph unicode="*" horiz-adv-x="696" d="M176 1016l232 84l-183 127l64 73l168 -145l39 231h96l-68 -239l228 104l26 -84l-229 -84l182 -127l-65 -73l-168 145l-39 -231h-94l65 239l-227 -102z" />
<glyph unicode="+" horiz-adv-x="1021" d="M90 637l23 106h393l92 424h119l-94 -424h393l-25 -106h-391l-98 -436h-117l96 436h-391z" />
<glyph unicode="," horiz-adv-x="471" d="M-37 -180q137 70 172 172h-16q-37 0 -62.5 24.5t-25.5 65.5q0 49 36.5 86t86.5 37q47 0 77.5 -32t30.5 -89q0 -92 -68.5 -186.5t-166.5 -145.5z" />
<glyph unicode="-" horiz-adv-x="614" d="M45 428l29 135h491l-28 -135h-492z" />
<glyph unicode="." horiz-adv-x="471" d="M31 82q0 51 36.5 87t88.5 36q43 0 72.5 -31t29.5 -74q0 -49 -37 -84.5t-86 -35.5q-45 0 -74.5 29.5t-29.5 72.5z" />
<glyph unicode="/" horiz-adv-x="606" d="M-123 -41l805 1448h129l-807 -1448h-127z" />
<glyph unicode="0" horiz-adv-x="1253" d="M121 508q0 156 45 310.5t126 281.5t205 206.5t267 79.5q213 0 329.5 -141t116.5 -389q0 -211 -74.5 -409.5t-225 -335t-341.5 -136.5q-215 0 -331.5 142.5t-116.5 390.5zM293 498q0 -168 71.5 -269.5t219.5 -101.5q135 0 241.5 120t158.5 286.5t52 332.5 q0 170 -69.5 269.5t-218.5 99.5q-133 0 -241 -120t-161 -285.5t-53 -331.5z" />
<glyph unicode="1" horiz-adv-x="694" d="M156 1014l419 352h150l-301 -1366h-170l252 1141l-270 -232z" />
<glyph unicode="2" horiz-adv-x="1204" d="M0 0l37 166l312 195q120 77 254 175.5t207 172t122 154.5t49 157q0 100 -82 157.5t-213 57.5q-207 0 -350 -133l-80 121q78 74 195.5 118.5t244.5 44.5q195 0 330 -93t135 -265q0 -111 -66.5 -225.5t-195.5 -228t-266 -209t-332 -213.5h668l-31 -152h-938z" />
<glyph unicode="3" horiz-adv-x="1140" d="M-6 260l123 96q51 -106 160.5 -167.5t236.5 -61.5q150 0 238 81t88 206q0 94 -80 152.5t-223 58.5q-109 0 -131 -2l34 155q23 -2 187 -2q139 0 233 61.5t94 180.5q0 94 -85 155.5t-226 61.5q-197 0 -346 -135l-72 117q174 170 430 169q211 0 341 -91t130 -253 q0 -145 -112.5 -241t-255.5 -109q109 -25 179.5 -100.5t70.5 -192.5q0 -178 -139.5 -301t-352.5 -123q-176 0 -321.5 79t-200.5 206z" />
<glyph unicode="4" horiz-adv-x="1142" d="M31 346l35 154l765 866h244l-194 -870h192l-31 -150h-192l-76 -346h-170l76 346h-649zM233 496h478l159 712z" />
<glyph unicode="5" horiz-adv-x="1208" d="M72 248l129 102q102 -223 377 -223q143 0 242.5 94t99.5 234q0 123 -86 191.5t-224 68.5q-152 0 -282 -99l-113 56l154 694h835l-33 -152h-665l-100 -450q115 92 286.5 92t288.5 -102.5t117 -282.5q0 -205 -149.5 -350.5t-379.5 -145.5q-356 1 -497 273z" />
<glyph unicode="6" horiz-adv-x="1210" d="M113 479q0 150 42 304.5t119.5 291.5t212 224t297.5 87q283 0 412 -204l-115 -115q-88 168 -307 168q-180 0 -296 -150.5t-169 -363.5q-10 -31 -10 -41q61 68 170 121t223 53q182 0 298 -97.5t116 -260.5q0 -213 -152.5 -367t-373.5 -154q-223 0 -345 132t-122 372z M276 446q0 -143 81 -231t225 -88q147 0 246.5 103.5t99.5 242.5q0 111 -83 175.5t-220 64.5q-193 0 -344 -168q-5 -38 -5 -99z" />
<glyph unicode="7" horiz-adv-x="1054" d="M133 0l813 1214h-727l35 152h932l-27 -117l-829 -1249h-197z" />
<glyph unicode="8" horiz-adv-x="1189" d="M61 324q0 150 112 255t302 144q-98 39 -167.5 113.5t-69.5 175.5q0 180 147 277t337.5 97t329 -90t138.5 -245q0 -145 -106.5 -240.5t-280.5 -122.5q106 -49 181 -130t75 -193q0 -170 -147.5 -280t-356.5 -110q-213 0 -353.5 91.5t-140.5 257.5zM242 354q0 -109 91 -168 t228 -59q129 0 227.5 69.5t98.5 184.5q0 90 -82 155.5t-180 92.5q-166 -10 -274.5 -85t-108.5 -190zM408 995q0 -78 78.5 -139t168.5 -82q158 10 255.5 75.5t97.5 174.5q0 88 -86 148.5t-209 60.5q-127 0 -216 -64.5t-89 -173.5z" />
<glyph unicode="9" horiz-adv-x="1210" d="M92 182l115 115q88 -168 307 -168q96 0 176 45t135.5 122t92 162t61.5 183q8 27 12 43q-63 -68 -171.5 -122t-221.5 -54q-182 0 -299 98.5t-117 261.5q0 211 153.5 366t375.5 155q223 0 345 -132.5t122 -371.5q0 -150 -42 -304.5t-121 -291.5t-213 -224.5t-298 -87.5 q-283 0 -412 205zM358 891q0 -111 85 -176.5t221 -65.5q188 0 346 168q2 18 2 98q0 143 -81 232.5t-224 89.5q-147 0 -248 -103.5t-101 -242.5z" />
<glyph unicode=":" horiz-adv-x="471" d="M31 82q0 51 36.5 87t88.5 36q43 0 72.5 -31t29.5 -74q0 -49 -37 -84.5t-86 -35.5q-45 0 -74.5 29.5t-29.5 72.5zM209 883q0 51 36 86t87 35q43 0 72.5 -31t29.5 -72q0 -51 -36 -87t-87 -36q-43 0 -72.5 31t-29.5 74z" />
<glyph unicode=";" horiz-adv-x="471" d="M-37 -180q137 70 172 172h-16q-37 0 -62.5 24.5t-25.5 65.5q0 49 36.5 86t86.5 37q47 0 77.5 -32t30.5 -89q0 -92 -68.5 -186.5t-166.5 -145.5zM209 883q0 51 36 86t87 35q43 0 72.5 -31t29.5 -72q0 -51 -36 -87t-87 -36q-43 0 -72.5 31t-29.5 74z" />
<glyph unicode="&#x3c;" horiz-adv-x="1021" d="M86 631l27 108l1001 449l-31 -135l-854 -375l689 -371l-27 -123z" />
<glyph unicode="=" horiz-adv-x="1021" d="M43 432l25 107h903l-25 -107h-903zM131 827l25 109h903l-25 -109h-903z" />
<glyph unicode="&#x3e;" horiz-adv-x="1021" d="M-12 184l30 135l854 371l-688 375l27 123l803 -449l-25 -108z" />
<glyph unicode="?" horiz-adv-x="946" d="M186 1219q180 168 412 167q180 0 296 -82.5t116 -216.5q0 -102 -53.5 -176.5t-130 -118.5t-153.5 -82t-130.5 -86.5t-53.5 -109.5q0 -47 37 -82l-137 -53q-49 63 -49 145t50 143.5t122 99.5l143 75q72 37 122 91t50 124q0 82 -65.5 130t-183.5 48q-182 0 -314 -131z M254 82q0 51 37 87t86 36q45 0 74.5 -31t29.5 -74q0 -51 -36.5 -85.5t-88.5 -34.5q-43 0 -72.5 29.5t-29.5 72.5z" />
<glyph unicode="@" horiz-adv-x="1603" d="M113 500q0 328 244.5 567.5t568.5 239.5q285 0 465 -187.5t180 -462.5q0 -227 -106.5 -355t-247.5 -128q-82 0 -132.5 48t-54.5 118l-2 12q-55 -78 -142 -128t-181 -50q-141 0 -227.5 92t-86.5 242q0 209 147.5 361.5t333.5 152.5q94 0 163 -45t100 -115l26 127h139 l-116 -555q-4 -25 -4 -43q0 -51 27.5 -78.5t68.5 -27.5q78 0 149.5 92t71.5 280q0 254 -160.5 417t-418.5 163q-295 0 -515.5 -222t-220.5 -511q0 -248 167 -414t421 -166q199 0 381 115l37 -53q-201 -129 -426 -129q-279 0 -464 185.5t-185 457.5zM537 516 q0 -100 56 -163.5t152 -63.5q178 0 306 184l59 283q-20 59 -74.5 105t-136.5 46q-150 0 -256 -119.5t-106 -271.5z" />
<glyph unicode="A" horiz-adv-x="1347" d="M-92 0l850 1366h211l250 -1366h-187l-53 303h-682l-186 -303h-203zM383 455h580l-129 735z" />
<glyph unicode="B" horiz-adv-x="1288" d="M49 0l301 1366h568q152 0 250 -88t98 -225q0 -143 -93.5 -248t-224.5 -119q88 -23 144.5 -103.5t56.5 -176.5q0 -166 -121 -286t-346 -120h-633zM250 152h428q139 0 218 77.5t79 188.5q0 90 -59.5 147.5t-159.5 57.5h-402zM389 774h424q139 0 203.5 75t64.5 179 q0 80 -60 133t-147 53h-387z" />
<glyph unicode="C" horiz-adv-x="1384" d="M123 573q0 180 64.5 335t171 259.5t245.5 163t287 58.5q199 0 342 -86t215 -236l-162 -63q-119 233 -405 233q-229 0 -403.5 -184.5t-174.5 -470.5q0 -203 125 -329t336 -126q201 0 366 156l125 -95q-199 -213 -501 -213q-274 0 -452.5 165t-178.5 433z" />
<glyph unicode="D" horiz-adv-x="1433" d="M49 0l301 1366h457q233 0 400 -166t167 -418q0 -143 -52 -279t-153.5 -250t-271.5 -183.5t-383 -69.5h-465zM250 152h285h8q293 0 473 181t180 441q0 188 -121 314t-301 126h-287z" />
<glyph unicode="E" horiz-adv-x="1165" d="M49 0l301 1366h895l-33 -152h-725l-98 -440h711l-33 -151h-713l-104 -471h727l-33 -152h-895z" />
<glyph unicode="F" horiz-adv-x="1126" d="M49 0l301 1366h895l-33 -152h-725l-98 -440h711l-33 -151h-713l-135 -623h-170z" />
<glyph unicode="G" horiz-adv-x="1460" d="M123 573q0 350 227.5 583t552.5 233q186 0 324.5 -82t214.5 -217l-154 -72q-53 104 -162.5 161.5t-244.5 57.5q-231 0 -404.5 -188.5t-173.5 -466.5q0 -205 126 -330t335 -125q197 0 358 145l64 279h-471l33 151h641l-111 -501q-221 -225 -524 -226q-281 0 -456 166 t-175 432z" />
<glyph unicode="H" horiz-adv-x="1458" d="M49 0l301 1366h170l-129 -588h799l129 588h170l-301 -1366h-170l137 627h-799l-137 -627h-170z" />
<glyph unicode="I" horiz-adv-x="489" d="M49 0l301 1366h170l-301 -1366h-170z" />
<glyph unicode="J" horiz-adv-x="972" d="M-45 147l102 123q80 -143 258 -143q123 0 201 77t107 210l211 952h170l-211 -954q-96 -436 -469 -437q-119 0 -217.5 44t-151.5 128z" />
<glyph unicode="K" horiz-adv-x="1230" d="M49 0l301 1366h170l-153 -690l747 690h223l-712 -649l460 -717h-198l-389 623l-179 -164l-100 -459h-170z" />
<glyph unicode="L" horiz-adv-x="1058" d="M49 0l301 1366h170l-270 -1214h637l-33 -152h-805z" />
<glyph unicode="M" horiz-adv-x="1656" d="M49 0l301 1366h236l192 -1053l658 1053h252l-302 -1366h-169l253 1149l-718 -1149h-70l-211 1149l-252 -1149h-170z" />
<glyph unicode="N" horiz-adv-x="1449" d="M49 0l301 1366h174l545 -1094l242 1094h170l-301 -1366h-164l-551 1114l-246 -1114h-170z" />
<glyph unicode="O" horiz-adv-x="1566" d="M123 573q0 342 224 579t544 237q272 0 451.5 -161t179.5 -435q0 -344 -224.5 -581t-543.5 -237q-272 0 -451.5 161t-179.5 437zM303 582q0 -213 131 -334t330 -121q236 0 406.5 188.5t170.5 466.5q0 211 -131 333t-329 122q-240 0 -409 -187t-169 -468z" />
<glyph unicode="P" horiz-adv-x="1202" d="M49 0l301 1366h508q172 0 275.5 -103.5t103.5 -250.5q0 -82 -28.5 -161t-87 -150.5t-164 -114.5t-242.5 -43h-377l-119 -543h-170zM371 694h358q156 0 243 88t87 217q0 90 -64.5 152.5t-163.5 62.5h-344z" />
<glyph unicode="Q" horiz-adv-x="1566" d="M123 573q0 342 224 579t544 237q272 0 451.5 -161t179.5 -435q0 -203 -84 -376t-230 -286l86 -121l-137 -73l-80 112q-154 -74 -323 -74q-272 0 -451.5 161t-179.5 437zM303 582q0 -213 131 -334t330 -121q115 0 223 51l-160 230l136 73l153 -219q104 90 164.5 225.5 t60.5 294.5q0 211 -131 333t-329 122q-240 0 -409 -187t-169 -468z" />
<glyph unicode="R" horiz-adv-x="1245" d="M49 0l301 1366h502q156 0 271.5 -98.5t115.5 -257.5q0 -190 -123 -317.5t-321 -141.5l245 -551h-188l-229 543h-287l-117 -543h-170zM371 692h354h6q154 0 241 87t87 216q0 94 -70.5 156.5t-161.5 62.5h-340z" />
<glyph unicode="S" horiz-adv-x="1200" d="M33 219l117 123q72 -100 190.5 -157.5t259.5 -57.5q147 0 224 78t77 176q0 74 -69.5 128t-170 92t-200 82t-169 121t-69.5 185q0 162 138.5 280t345.5 118q158 0 289.5 -57.5t203.5 -158.5l-117 -118q-66 90 -172 137t-223 47t-199.5 -67.5t-82.5 -157.5q0 -68 69.5 -118 t169.5 -89t199.5 -84t169 -125t69.5 -188q0 -174 -134 -303.5t-363 -129.5q-180 0 -330.5 69t-222.5 175z" />
<glyph unicode="T" horiz-adv-x="1167" d="M223 1214l33 152h1036l-32 -152h-435l-268 -1214h-170l268 1214h-432z" />
<glyph unicode="U" horiz-adv-x="1433" d="M156 430q0 39 10 100l184 836h170l-182 -831q-10 -41 -10 -86q0 -143 95 -232.5t265 -89.5q180 0 279.5 103.5t142.5 304.5l184 831h170l-182 -834q-61 -272 -198.5 -414.5t-395.5 -142.5q-252 0 -392 123t-140 332z" />
<glyph unicode="V" horiz-adv-x="1347" d="M209 1366h184l201 -1180l723 1180h203l-852 -1366h-211z" />
<glyph unicode="W" horiz-adv-x="1808" d="M219 1366h184l50 -1139l565 1139h143l60 -1139l555 1139h192l-690 -1366h-184l-58 1102l-544 -1102h-185z" />
<glyph unicode="X" horiz-adv-x="1335" d="M-86 0l688 711l-356 655h194l291 -543l516 543h221l-649 -676l379 -690h-192l-316 578l-557 -578h-219z" />
<glyph unicode="Y" horiz-adv-x="1282" d="M209 1366h186l285 -635l563 635h211l-711 -788l-127 -578h-170l127 578z" />
<glyph unicode="Z" horiz-adv-x="1198" d="M-12 0l30 141l994 1073h-756l33 152h985l-29 -141l-997 -1073h774l-35 -152h-999z" />
<glyph unicode="[" horiz-adv-x="497" d="M-117 -389l396 1778h380l-24 -113h-262l-344 -1552h262l-27 -113h-381z" />
<glyph unicode="\" horiz-adv-x="606" d="M201 1407h121l163 -1448h-120z" />
<glyph unicode="]" horiz-adv-x="497" d="M-162 -389l25 113h260l346 1552h-262l24 113h381l-395 -1778h-379z" />
<glyph unicode="^" horiz-adv-x="884" d="M78 682l497 684h117l193 -684h-121l-150 571l-403 -571h-133z" />
<glyph unicode="_" horiz-adv-x="1155" d="M-160 -195l27 113h1165l-26 -113h-1166z" />
<glyph unicode="`" horiz-adv-x="462" d="M207 1434h160l237 -295h-117z" />
<glyph unicode="a" horiz-adv-x="1177" d="M82 383q0 254 144.5 442.5t373.5 188.5q113 0 204 -48t140 -132l35 155h154l-220 -989h-153l31 141q-133 -166 -326 -166q-174 0 -278.5 109t-104.5 299zM244 412q0 -137 75.5 -218t200.5 -81q88 0 170 48t131 120l99 436q-39 70 -118 115t-181 45q-164 0 -270.5 -139.5 t-106.5 -325.5z" />
<glyph unicode="b" horiz-adv-x="1177" d="M43 0l301 1366h154l-115 -518q135 166 328 166q172 0 277.5 -108.5t105.5 -299.5q0 -252 -144.5 -441.5t-374.5 -189.5q-115 0 -203.5 48.5t-140.5 132.5l-34 -156h-154zM256 272q39 -72 118 -115.5t181 -43.5q164 0 270.5 139t106.5 326q0 137 -76 218t-201 81 q-90 0 -169.5 -48.5t-133.5 -121.5z" />
<glyph unicode="c" horiz-adv-x="1013" d="M82 418q0 246 162 421t395 175q260 0 371 -185l-117 -88q-78 135 -250 136q-180 0 -290.5 -135.5t-110.5 -321.5q0 -147 87 -227t222 -80q147 0 250 116l88 -102q-147 -152 -352 -152q-203 0 -329 119t-126 324z" />
<glyph unicode="d" horiz-adv-x="1177" d="M82 383q0 254 144.5 442.5t373.5 188.5q113 0 204 -48t140 -132l119 532h154l-304 -1366h-153l31 141q-133 -166 -326 -166q-174 0 -278.5 109t-104.5 299zM244 412q0 -137 75.5 -218t200.5 -81q88 0 170 48t131 120l99 436q-39 70 -118 115t-181 45 q-164 0 -270.5 -139.5t-106.5 -325.5z" />
<glyph unicode="e" horiz-adv-x="1153" d="M82 414q0 248 162 424t395 176q193 0 309.5 -121t116.5 -311q0 -61 -16 -138h-807q0 -4 -1 -21t-1 -26q0 -123 88 -209t247 -86q164 0 285 97l51 -107q-147 -117 -346 -117q-223 0 -353 119t-130 320zM258 557h664q4 16 4 39q0 127 -79 209t-222 82q-133 0 -237.5 -97.5 t-129.5 -232.5z" />
<glyph unicode="f" horiz-adv-x="579" d="M86 0l188 856h-163l30 133h164l17 76q72 322 329 321q131 0 215 -83l-82 -93q-49 49 -127 50q-141 0 -182 -195l-16 -76h200l-30 -133h-201l-188 -856h-154z" />
<glyph unicode="g" horiz-adv-x="1175" d="M-8 -233l98 104q100 -145 342 -145q264 0 332 303l29 129q-133 -168 -336 -168q-166 0 -271.5 104.5t-105.5 304.5q0 246 143.5 430.5t372.5 184.5q98 0 194.5 -50.5t151.5 -129.5l35 155h153l-212 -960q-94 -430 -484 -430q-303 0 -442 168zM242 424q0 -137 74.5 -217 t201.5 -80q82 0 164 45t139 113l94 428q-41 76 -124.5 120t-182.5 44q-162 0 -264 -136.5t-102 -316.5z" />
<glyph unicode="h" horiz-adv-x="1130" d="M43 0l301 1366h154l-115 -520q176 168 350 168q133 0 214 -64.5t81 -181.5q0 -41 -12 -82l-150 -686h-153l141 649q12 55 12 68q0 160 -204 160q-156 0 -306 -158l-159 -719h-154z" />
<glyph unicode="i" horiz-adv-x="460" d="M43 0l219 989h154l-219 -989h-154zM287 1221q0 51 36.5 83.5t79.5 32.5q39 0 67 -26.5t28 -63.5q0 -51 -37 -84t-80 -33q-41 0 -67.5 26t-26.5 65z" />
<glyph unicode="j" horiz-adv-x="460" d="M-375 -315l74 110q51 -70 141 -69q139 0 180 178l242 1085h154l-242 -1085q-68 -305 -313 -305q-162 0 -236 86zM287 1221q0 51 36.5 83.5t79.5 32.5q39 0 67 -26.5t28 -63.5q0 -51 -37 -84t-80 -33q-41 0 -67.5 26t-26.5 65z" />
<glyph unicode="k" horiz-adv-x="1052" d="M43 0l301 1366h154l-197 -895l627 518h202l-538 -448l321 -541h-186l-262 451l-207 -168l-61 -283h-154z" />
<glyph unicode="l" horiz-adv-x="460" d="M43 0l301 1366h154l-301 -1366h-154z" />
<glyph unicode="m" horiz-adv-x="1654" d="M43 0l219 989h154l-33 -143q145 168 311 168q119 0 186.5 -63.5t67.5 -121.5v-4q154 188 344 189q109 0 184.5 -65.5t75.5 -180.5q0 -20 -10 -82l-151 -686h-154l145 664q8 41 9 59q0 72 -48.5 113t-119.5 41q-137 0 -271 -156l-159 -721h-154l147 664q8 53 9 71 q-2 61 -46 101.5t-126 40.5q-131 0 -267 -156l-159 -721h-154z" />
<glyph unicode="n" horiz-adv-x="1128" d="M43 0l219 989h154l-33 -143q176 168 350 168q133 0 214 -64.5t81 -181.5q0 -41 -12 -82l-152 -686h-153l143 649q12 55 12 68q0 82 -54 121t-140 39q-168 0 -316 -156l-159 -721h-154z" />
<glyph unicode="o" d="M82 414q0 240 158.5 420t392.5 180q209 0 330.5 -121t121.5 -320q0 -240 -158.5 -419t-391.5 -179q-209 0 -331 120t-122 319zM244 420q0 -141 77.5 -224t217.5 -83q164 0 274.5 138t110.5 318q0 141 -78 224.5t-217 83.5q-164 0 -274.5 -138.5t-110.5 -318.5z" />
<glyph unicode="p" d="M-41 -377l303 1366h154l-33 -141q135 166 328 166q172 0 277.5 -108.5t105.5 -299.5q0 -252 -144.5 -441.5t-374.5 -189.5q-115 0 -203.5 48.5t-140.5 132.5l-118 -533h-154zM256 272q39 -72 118 -115.5t181 -43.5q164 0 270.5 139t106.5 326q0 137 -76 218t-201 81 q-90 0 -169.5 -48.5t-133.5 -121.5z" />
<glyph unicode="q" d="M82 383q0 254 144.5 442.5t373.5 188.5q113 0 204 -48t140 -132l35 155h154l-304 -1366h-153l115 518q-133 -166 -326 -166q-174 0 -278.5 109t-104.5 299zM244 412q0 -137 75.5 -218t200.5 -81q88 0 170 48t131 120l99 436q-39 70 -118 115t-181 45 q-164 0 -270.5 -139.5t-106.5 -325.5z" />
<glyph unicode="r" horiz-adv-x="675" d="M43 0l219 989h154l-35 -151q78 88 162 130t207 42l-35 -158q-25 8 -78 8q-82 0 -159 -47t-128 -115l-153 -698h-154z" />
<glyph unicode="s" horiz-adv-x="952" d="M6 150l98 106q43 -63 133.5 -109.5t194.5 -46.5q102 0 164.5 51.5t62.5 122.5q0 51 -53 90t-130 67t-153.5 58.5t-130 87t-53.5 132.5q0 129 100.5 217t274.5 88q123 0 224.5 -46t152.5 -116l-88 -100q-35 55 -120 96t-177 41q-96 0 -154.5 -43t-58.5 -109q0 -49 53 -85 t130 -63.5t154 -59t130 -90t53 -138.5q0 -135 -105.5 -230.5t-283.5 -95.5q-279 1 -418 175z" />
<glyph unicode="t" horiz-adv-x="602" d="M100 856l31 133h164l59 271h154l-59 -271h200l-31 -133h-200l-135 -610q-4 -25 -4 -41q0 -92 98 -92q57 0 94 32l18 -122q-61 -47 -149 -48q-106 0 -165.5 45.5t-59.5 135.5q0 27 6 57l143 643h-164z" />
<glyph unicode="u" horiz-adv-x="1128" d="M100 221q0 31 11 82l151 686h154l-144 -647q-10 -51 -10 -70q0 -160 205 -159q150 0 305 155l158 721h153l-219 -989h-153l32 143q-176 -168 -348 -168q-135 0 -215 64.5t-80 181.5z" />
<glyph unicode="v" horiz-adv-x="1003" d="M115 989h161l148 -811l510 811h172l-631 -989h-168z" />
<glyph unicode="w" horiz-adv-x="1503" d="M133 989h154l65 -788l434 788h136l84 -788l413 788h168l-534 -989h-154l-82 795l-434 -795h-154z" />
<glyph unicode="x" horiz-adv-x="995" d="M-86 0l489 508l-249 481h170l190 -377l360 377h185l-467 -481l270 -508h-170l-209 406l-387 -406h-182z" />
<glyph unicode="y" horiz-adv-x="1003" d="M-94 -379l53 137q37 -16 96 -16q82 0 148 98l100 154l-188 995h161l148 -811l510 811h172l-762 -1190q-129 -201 -309 -200q-74 -1 -129 22z" />
<glyph unicode="z" horiz-adv-x="966" d="M-4 0l24 119l701 735h-537l31 135h746l-27 -117l-705 -739h549l-28 -133h-754z" />
<glyph unicode="{" horiz-adv-x="532" d="M-27 -170q0 31 7 55l94 422q4 25 4 35q0 45 -21.5 76t-58.5 31l25 102q106 0 137 141l92 420q31 137 114 207t203 70h125l-24 -113h-125q-135 0 -172 -164l-101 -444q-31 -143 -131 -181q59 -31 60 -110q0 -37 -8 -70l-93 -420q-4 -25 -4 -43q0 -53 33 -86.5t84 -33.5 h113l-27 -113h-96q-92 0 -161 61.5t-69 157.5z" />
<glyph unicode="|" horiz-adv-x="432" d="M201 -41v1448h112v-1448h-112z" />
<glyph unicode="}" horiz-adv-x="532" d="M-164 -389l25 113h127q135 0 170 161l100 447q31 143 133 180q-59 31 -59 111q0 37 8 69l92 420q4 25 4 43q0 51 -33.5 86t-85.5 35h-112l26 113h99q92 0 159.5 -61.5t67.5 -158.5q0 -33 -6 -57l-94 -420q-4 -25 -4 -35q0 -47 21.5 -76.5t57.5 -29.5l-22 -102 q-109 0 -139 -142l-92 -420q-31 -137 -114 -206.5t-204 -69.5h-125z" />
<glyph unicode="~" horiz-adv-x="1030" d="M139 879q106 485 365 485q78 0 122 -40t56 -98.5t20.5 -115.5t31 -97t69.5 -40q76 0 141.5 107.5t104.5 285.5l114 -14q-113 -485 -366 -486q-94 0 -140.5 60.5t-51.5 134.5t-29.5 134t-79.5 60q-74 0 -138.5 -106.5t-107.5 -284.5z" />
<glyph unicode="&#xa1;" horiz-adv-x="471" d="M-55 -377l250 983h127l-185 -983h-192zM209 889q0 51 36 86t87 35q43 0 72.5 -30t29.5 -75q0 -49 -36 -85t-87 -36q-43 0 -72.5 31t-29.5 74z" />
<glyph unicode="&#xa2;" horiz-adv-x="1013" d="M82 418q0 244 157.5 418t389.5 178l33 143h120l-34 -153q176 -33 262 -175l-117 -88q-55 96 -176 127l-168 -755h2q147 0 250 116l88 -102q-147 -152 -352 -152h-17l-41 -180h-121l43 197q-147 35 -233 146.5t-86 279.5zM242 420q0 -113 51 -186.5t139 -102.5l166 741 q-162 -18 -259 -148t-97 -304z" />
<glyph unicode="&#xa3;" horiz-adv-x="1060" d="M8 113q147 59 247.5 167.5t100.5 221.5q0 14 -4 47h-303l25 110h235l-36 62q-28 47 -40 70.5t-24 67.5t-12 87q0 176 145 308t352 132q150 0 269.5 -67.5t152.5 -177.5l-155 -66q-16 74 -90 121t-171 47q-131 0 -225 -86t-94 -225q0 -53 16.5 -98.5t48 -97.5t41.5 -77 h301l-24 -110h-248v-17q0 -100 -68.5 -194t-154.5 -145q53 16 94 16q68 0 169 -42t159 -42q109 0 186 82l43 -137q-111 -96 -239 -97q-94 0 -221.5 47.5t-207.5 47.5q-98 0 -235 -82z" />
<glyph unicode="&#xa4;" horiz-adv-x="1224" d="M10 240l201 161q-53 90 -53 213q0 233 159 394l-116 151l106 84l117 -151q129 76 274 75q193 0 320 -106l203 166l84 -103l-203 -166q55 -100 55 -215q0 -229 -160 -389l115 -143l-106 -86l-115 145q-127 -76 -277 -75q-188 0 -315 104l-203 -166zM317 629 q0 -135 85 -214t225 -79q158 0 264 118.5t106 274.5q0 127 -79.5 212t-229.5 85q-160 0 -265.5 -120.5t-105.5 -276.5z" />
<glyph unicode="&#xa5;" horiz-adv-x="1282" d="M-12 250l24 108h518l50 220h-519l25 106h444l-315 682h186l285 -635l563 635h211l-614 -682h432l-23 -106h-505l-50 -220h506l-24 -108h-504l-55 -250h-170l55 250h-520z" />
<glyph unicode="&#xa6;" horiz-adv-x="432" d="M201 -41v647h112v-647h-112zM201 760v647h112v-647h-112z" />
<glyph unicode="&#xa7;" horiz-adv-x="958" d="M-43 0l98 94q51 -68 142.5 -107.5t195.5 -39.5q100 0 166 54t66 132q0 55 -53.5 95t-128 68t-150.5 59.5t-129 89t-53 139.5q0 102 76.5 179t220.5 101q-186 72 -187 226q0 121 101.5 208.5t269.5 87.5q268 0 399 -153l-92 -84q-94 123 -301 123q-98 0 -160.5 -47 t-62.5 -117q0 -55 53 -94t130 -65.5t152.5 -57.5t129 -89.5t53.5 -142.5q0 -98 -65.5 -178t-188.5 -116q141 -76 141 -211q0 -131 -105.5 -225.5t-277.5 -94.5q-290 0 -440 166zM264 610q0 -70 58.5 -108.5t191.5 -83.5q115 31 168 88t53 121q0 66 -51 106.5t-141 73.5 q-139 -18 -209 -71.5t-70 -125.5z" />
<glyph unicode="&#xa8;" horiz-adv-x="557" d="M133 1227q0 41 33 72.5t74 31.5q37 0 61.5 -24.5t24.5 -59.5q0 -41 -33 -73.5t-74 -32.5q-35 0 -60.5 25.5t-25.5 60.5zM557 1227q0 41 32 72.5t75 31.5q35 0 59.5 -24.5t24.5 -59.5q0 -41 -32 -73.5t-75 -32.5q-35 0 -59.5 25.5t-24.5 60.5z" />
<glyph unicode="&#xa9;" horiz-adv-x="1593" d="M131 684q0 293 206 500t498.5 207t500.5 -207t208 -500t-208 -500t-500 -207q-291 0 -498 207t-207 500zM195 684q0 -266 187 -454.5t453.5 -188.5t456 188.5t189.5 454.5t-189.5 454.5t-456 188.5t-453.5 -188.5t-187 -454.5zM406 629q0 205 147 349t336 144 q219 0 319 -164l-63 -45q-76 141 -260 142q-154 0 -279 -123t-125 -301q0 -133 88 -224.5t230 -91.5q139 0 235 97l39 -58q-127 -106 -274 -106q-180 0 -286.5 108.5t-106.5 272.5z" />
<glyph unicode="&#xaa;" horiz-adv-x="839" d="M178 926q0 164 99.5 282.5t246.5 118.5q158 0 234 -110l18 94h119l-143 -643h-119l22 94q-94 -111 -221 -111q-109 0 -182.5 72t-73.5 203zM301 938q0 -92 48 -141t130 -49q109 0 197 100l65 293q-57 90 -194 90q-102 0 -174 -87t-72 -206z" />
<glyph unicode="&#xab;" horiz-adv-x="899" d="M59 498l410 362h162l-418 -373l238 -358h-146zM354 498l410 362h162l-418 -373l237 -358h-145z" />
<glyph unicode="&#xac;" horiz-adv-x="1032" d="M131 827l25 109h903l-113 -504h-112l88 395h-791z" />
<glyph unicode="&#xad;" horiz-adv-x="614" d="M45 428l29 135h491l-28 -135h-492z" />
<glyph unicode="&#xae;" horiz-adv-x="1011" d="M172 952.5q0 180.5 127 307t307 126.5t307 -125.5t127 -308.5q0 -180 -128 -307t-308 -127t-306 127t-126 307.5zM229 952q0 -156 110 -266.5t265.5 -110.5t266 111t110.5 266.5t-110.5 265t-266.5 109.5q-158 0 -266.5 -108.5t-108.5 -266.5zM385 702l109 498h188 q59 0 101 -36t42 -95q0 -72 -51 -120t-112 -48l90 -199h-78l-86 197h-94l-43 -197h-66zM506 958h137q47 0 80 30t33 75q0 37 -23.5 58.5t-60.5 21.5h-125z" />
<glyph unicode="&#xaf;" horiz-adv-x="743" d="M150 1171l20 99h741l-20 -99h-741z" />
<glyph unicode="&#xb0;" horiz-adv-x="593" d="M188 1137q0 102 73 175.5t175 73.5q104 0 177 -73.5t73 -175.5q0 -104 -72.5 -177t-177.5 -73q-102 0 -175 73t-73 177zM287 1137q0 -63 43 -107.5t104.5 -44.5t107.5 45t46 106.5t-45 106.5t-106.5 45t-105.5 -45t-44 -106z" />
<glyph unicode="&#xb1;" horiz-adv-x="1021" d="M-51 0l22 106h903l-22 -106h-903zM94 664l25 106h393l92 424h119l-94 -424h393l-25 -106h-393l-96 -439h-117l96 439h-393z" />
<glyph unicode="&#xb2;" horiz-adv-x="794" d="M182 862l23 101q317 188 447 292.5t130 206.5q0 63 -51 97t-123 34q-139 0 -229 -96l-57 82q111 115 290 115q121 0 208 -56.5t87 -167.5q0 -123 -130 -237.5t-388 -269.5h412l-23 -101h-596z" />
<glyph unicode="&#xb3;" horiz-adv-x="794" d="M205 997l82 70q82 -119 241 -119q84 0 132.5 46t48.5 116q0 55 -55.5 89t-147.5 34q-47 0 -62 -2l23 102q57 -4 125 -4q86 0 136 37t50 102q0 57 -55 91t-133 34q-119 0 -221 -88l-47 80q119 109 276 109q133 0 219 -54.5t86 -154.5q0 -90 -63.5 -147.5t-163.5 -65.5 q66 -12 112 -59.5t46 -116.5q0 -96 -83 -172t-219 -76q-239 -1 -327 149z" />
<glyph unicode="&#xb4;" horiz-adv-x="462" d="M137 1139l369 295h164l-412 -295h-121z" />
<glyph unicode="&#xb5;" horiz-adv-x="1155" d="M-45 -377l309 1366h154l-146 -649q-9 -40 -9 -73q0 -62 33 -100q50 -58 148 -58q82 0 172.5 45t149.5 108l162 727h153l-168 -758q-6 -26 -5 -45q0 -73 75 -73q20 0 41 4l-18 -133q-45 -8 -84 -9q-173 0 -173 158q0 9 1 19q-172 -176 -355 -177q-141 0 -184 99l-102 -451 h-154z" />
<glyph unicode="&#xb6;" horiz-adv-x="919" d="M162 981q0 150 115.5 267.5t281.5 117.5h406l-349 -1571h-92l328 1479h-182l-328 -1479h-92l192 867q-117 0 -198.5 91t-81.5 228z" />
<glyph unicode="&#xb7;" horiz-adv-x="471" d="M123 492q0 51 36 86.5t87 35.5q43 0 72.5 -30.5t29.5 -73.5q0 -51 -36 -86t-87 -35q-43 0 -72.5 30t-29.5 73z" />
<glyph unicode="&#xb8;" horiz-adv-x="419" d="M-182 -313l55 73q68 -72 170 -71q59 0 92 26.5t33 69.5q0 61 -76 61q-41 0 -72 -34l-59 38l102 173h93l-84 -136q31 23 69 23q53 0 86 -32t33 -89q0 -80 -61.5 -130t-159.5 -50q-139 0 -221 78z" />
<glyph unicode="&#xb9;" horiz-adv-x="481" d="M238 1456l272 225h108l-180 -819h-123l142 651l-160 -135z" />
<glyph unicode="&#xba;" horiz-adv-x="829" d="M176 942q0 160 109.5 272.5t265.5 112.5q139 0 223 -81t84 -212q0 -158 -109.5 -270.5t-265.5 -112.5q-139 0 -223 81t-84 210zM299 940q0 -86 51 -138t137 -52q111 0 179.5 85t68.5 201q0 84 -51 136.5t-135 52.5q-111 0 -180.5 -85t-69.5 -200z" />
<glyph unicode="&#xbb;" horiz-adv-x="899" d="M-23 129l418 373l-237 358h145l246 -368l-410 -363h-162zM272 129l418 373l-237 358h145l246 -368l-410 -363h-162z" />
<glyph unicode="&#xbc;" horiz-adv-x="1576" d="M111 0l1173 1366h115l-1176 -1366h-112zM168 1141l272 225h109l-180 -819h-123l141 651l-160 -135zM795 205l18 90l469 524h170l-113 -514h117l-20 -100h-119l-45 -205h-121l45 205h-401zM940 305h277l88 397z" />
<glyph unicode="&#xbd;" horiz-adv-x="1652" d="M111 0l1173 1366h115l-1176 -1366h-112zM168 1141l272 225h109l-180 -819h-123l141 651l-160 -135zM848 0l22 100q317 188 447.5 293t130.5 207q0 63 -51 97t-123 34q-139 0 -230 -96l-57 82q111 115 291 114q121 0 208 -56t87 -167q0 -123 -130 -237.5t-388 -270.5h411 l-22 -100h-596z" />
<glyph unicode="&#xbe;" horiz-adv-x="1798" d="M135 682l82 70q82 -119 242 -119q84 0 132 46t48 116q0 55 -55.5 89t-147.5 34q-47 0 -61 -3l22 103q57 -4 125 -4q86 0 136.5 36.5t50.5 102.5q0 57 -55.5 91t-133.5 34q-119 0 -221 -88l-47 80q119 109 276 108q133 0 219.5 -54t86.5 -155q0 -90 -63.5 -147t-164.5 -66 q66 -12 112 -59t46 -117q0 -96 -83 -172t-218 -76q-240 0 -328 150zM332 0l1173 1366h115l-1176 -1366h-112zM1018 205l18 90l469 524h170l-112 -514h116l-20 -100h-119l-45 -205h-121l45 205h-401zM1163 305h277l88 397z" />
<glyph unicode="&#xbf;" horiz-adv-x="806" d="M-68 -98q0 100 53.5 176t130.5 120t152.5 80.5t129 86t53.5 110.5q0 45 -33 80l135 55q47 -66 47 -145q0 -82 -50 -143.5t-121 -100.5l-142 -76q-72 -37 -122 -90t-50 -125q0 -82 65.5 -130t184.5 -48q178 0 315 133l76 -116q-180 -168 -412 -168q-180 0 -296 83 t-116 218zM461 889q0 49 37 85t86 36q45 0 74.5 -31t29.5 -74q0 -51 -37 -86t-88 -35q-43 0 -72.5 30t-29.5 75z" />
<glyph unicode="&#xc0;" horiz-adv-x="1347" d="M-92 0l850 1366h211l250 -1366h-187l-53 303h-682l-186 -303h-203zM383 455h580l-129 735zM608 1776h160l238 -295h-117z" />
<glyph unicode="&#xc1;" horiz-adv-x="1347" d="M-92 0l850 1366h211l250 -1366h-187l-53 303h-682l-186 -303h-203zM383 455h580l-129 735zM768 1481l369 295h163l-411 -295h-121z" />
<glyph unicode="&#xc2;" horiz-adv-x="1347" d="M-92 0l850 1366h211l250 -1366h-187l-53 303h-682l-186 -303h-203zM383 455h580l-129 735zM618 1481l261 295h147l135 -295h-100l-123 217l-211 -217h-109z" />
<glyph unicode="&#xc3;" horiz-adv-x="1347" d="M-92 0l850 1366h211l250 -1366h-187l-53 303h-682l-186 -303h-203zM383 455h580l-129 735zM571 1489q55 274 234 274q51 0 86 -29.5t50 -64.5t43 -64.5t65 -29.5q82 0 127 176h94q-59 -274 -236 -274q-51 0 -86 29.5t-50 64.5t-43 64.5t-64 29.5q-86 0 -125 -176h-95z " />
<glyph unicode="&#xc4;" horiz-adv-x="1347" d="M-92 0l850 1366h211l250 -1366h-187l-53 303h-682l-186 -303h-203zM383 455h580l-129 735zM604 1569q0 41 33 72.5t74 31.5q37 0 61.5 -24.5t24.5 -59.5q0 -41 -33 -73.5t-74 -32.5q-35 0 -60.5 25.5t-25.5 60.5zM1028 1569q0 41 32 72.5t75 31.5q35 0 59.5 -24.5 t24.5 -59.5q0 -41 -32 -73.5t-75 -32.5q-35 0 -59.5 25.5t-24.5 60.5z" />
<glyph unicode="&#xc5;" horiz-adv-x="1347" d="M-92 0l850 1366h211l250 -1366h-187l-53 303h-682l-186 -303h-203zM383 455h580l-129 735zM717 1595q0 88 65.5 155t155.5 67q80 0 131 -51.5t51 -131.5q0 -90 -65.5 -155.5t-155.5 -65.5q-80 0 -131 51t-51 131zM799 1604q0 -47 29.5 -78t76.5 -31q53 0 93 39t40 92 q0 49 -28.5 79t-77.5 30q-53 0 -93 -39t-40 -92z" />
<glyph unicode="&#xc6;" horiz-adv-x="1939" d="M-96 0l1153 1366h962l-32 -152h-725l-99 -440h711l-33 -151h-713l-104 -471h727l-33 -152h-895l66 303h-531l-254 -303h-200zM475 455h449l157 725z" />
<glyph unicode="&#xc7;" horiz-adv-x="1384" d="M123 573q0 180 64.5 335t171 259.5t245.5 163t287 58.5q199 0 342 -86t215 -236l-162 -63q-119 233 -405 233q-229 0 -403.5 -184.5t-174.5 -470.5q0 -203 125 -329t336 -126q201 0 366 156l125 -95q-199 -213 -501 -213q-27 0 -39 2l-56 -90q31 23 70 23q53 0 86 -32 t33 -89q0 -80 -61.5 -130t-159.5 -50q-139 0 -221 78l55 73q68 -72 170 -71q59 0 92 26.5t33 69.5q0 61 -76 61q-41 0 -72 -34l-59 38l80 136q-227 37 -366.5 194t-139.5 393z" />
<glyph unicode="&#xc8;" horiz-adv-x="1165" d="M49 0l301 1366h895l-33 -152h-725l-98 -440h711l-33 -151h-713l-104 -471h727l-33 -152h-895zM545 1776h160l237 -295h-117z" />
<glyph unicode="&#xc9;" horiz-adv-x="1165" d="M49 0l301 1366h895l-33 -152h-725l-98 -440h711l-33 -151h-713l-104 -471h727l-33 -152h-895zM702 1481l369 295h164l-412 -295h-121z" />
<glyph unicode="&#xca;" horiz-adv-x="1165" d="M49 0l301 1366h895l-33 -152h-725l-98 -440h711l-33 -151h-713l-104 -471h727l-33 -152h-895zM551 1481l260 295h147l136 -295h-101l-123 217l-211 -217h-108z" />
<glyph unicode="&#xcb;" horiz-adv-x="1165" d="M49 0l301 1366h895l-33 -152h-725l-98 -440h711l-33 -151h-713l-104 -471h727l-33 -152h-895zM537 1569q0 41 32.5 72.5t73.5 31.5q37 0 61.5 -24.5t24.5 -59.5q0 -41 -32.5 -73.5t-73.5 -32.5q-35 0 -60.5 25.5t-25.5 60.5zM961 1569q0 41 31.5 72.5t74.5 31.5 q35 0 59.5 -24.5t24.5 -59.5q0 -41 -32 -73.5t-75 -32.5q-35 0 -59 25.5t-24 60.5z" />
<glyph unicode="&#xcc;" horiz-adv-x="489" d="M49 0l301 1366h170l-301 -1366h-170zM180 1776h160l238 -295h-117z" />
<glyph unicode="&#xcd;" horiz-adv-x="489" d="M49 0l301 1366h170l-301 -1366h-170zM340 1481l369 295h163l-411 -295h-121z" />
<glyph unicode="&#xce;" horiz-adv-x="489" d="M49 0l301 1366h170l-301 -1366h-170zM190 1481l261 295h147l135 -295h-100l-123 217l-211 -217h-109z" />
<glyph unicode="&#xcf;" horiz-adv-x="489" d="M49 0l301 1366h170l-301 -1366h-170zM174 1569q0 41 33 72.5t74 31.5q37 0 61.5 -24.5t24.5 -59.5q0 -41 -33 -73.5t-74 -32.5q-35 0 -60.5 25.5t-25.5 60.5zM598 1569q0 41 32 72.5t75 31.5q35 0 59 -24.5t24 -59.5q0 -41 -31.5 -73.5t-74.5 -32.5q-35 0 -59.5 25.5 t-24.5 60.5z" />
<glyph unicode="&#xd0;" horiz-adv-x="1490" d="M45 612l31 142h196l136 612h456q233 0 400.5 -166t167.5 -418q0 -143 -52.5 -279t-154 -250t-271.5 -183.5t-383 -69.5h-465l136 612h-197zM307 152h293q293 0 473 181t180 441q0 188 -120.5 314t-301.5 126h-286l-103 -460h346l-30 -142h-348z" />
<glyph unicode="&#xd1;" horiz-adv-x="1449" d="M49 0l301 1366h174l545 -1094l242 1094h170l-301 -1366h-164l-551 1114l-246 -1114h-170zM623 1489q55 274 233 274q51 0 86 -29.5t50.5 -64.5t43 -64.5t64.5 -29.5q84 0 127 176h94q-59 -274 -236 -274q-51 0 -85.5 29.5t-50 64.5t-43 64.5t-64.5 29.5q-86 0 -125 -176 h-94z" />
<glyph unicode="&#xd2;" horiz-adv-x="1566" d="M123 573q0 342 224 579t544 237q272 0 451.5 -161t179.5 -435q0 -344 -224.5 -581t-543.5 -237q-272 0 -451.5 161t-179.5 437zM303 582q0 -213 131 -334t330 -121q236 0 406.5 188.5t170.5 466.5q0 211 -131 333t-329 122q-240 0 -409 -187t-169 -468zM721 1776h160 l237 -295h-117z" />
<glyph unicode="&#xd3;" horiz-adv-x="1566" d="M123 573q0 342 224 579t544 237q272 0 451.5 -161t179.5 -435q0 -344 -224.5 -581t-543.5 -237q-272 0 -451.5 161t-179.5 437zM303 582q0 -213 131 -334t330 -121q236 0 406.5 188.5t170.5 466.5q0 211 -131 333t-329 122q-240 0 -409 -187t-169 -468zM879 1481l368 295 h164l-412 -295h-120z" />
<glyph unicode="&#xd4;" horiz-adv-x="1566" d="M123 573q0 342 224 579t544 237q272 0 451.5 -161t179.5 -435q0 -344 -224.5 -581t-543.5 -237q-272 0 -451.5 161t-179.5 437zM303 582q0 -213 131 -334t330 -121q236 0 406.5 188.5t170.5 466.5q0 211 -131 333t-329 122q-240 0 -409 -187t-169 -468zM731 1481l260 295 h148l135 -295h-100l-123 217l-211 -217h-109z" />
<glyph unicode="&#xd5;" horiz-adv-x="1566" d="M123 573q0 342 224 579t544 237q272 0 451.5 -161t179.5 -435q0 -344 -224.5 -581t-543.5 -237q-272 0 -451.5 161t-179.5 437zM303 582q0 -213 131 -334t330 -121q236 0 406.5 188.5t170.5 466.5q0 211 -131 333t-329 122q-240 0 -409 -187t-169 -468zM682 1489 q55 274 233 274q51 0 86 -29.5t50.5 -64.5t43 -64.5t64.5 -29.5q82 0 127 176h94q-59 -274 -235 -274q-51 0 -86 29.5t-50.5 64.5t-43 64.5t-64.5 29.5q-86 0 -125 -176h-94z" />
<glyph unicode="&#xd6;" horiz-adv-x="1566" d="M123 573q0 342 224 579t544 237q272 0 451.5 -161t179.5 -435q0 -344 -224.5 -581t-543.5 -237q-272 0 -451.5 161t-179.5 437zM303 582q0 -213 131 -334t330 -121q236 0 406.5 188.5t170.5 466.5q0 211 -131 333t-329 122q-240 0 -409 -187t-169 -468zM715 1569 q0 41 32.5 72.5t73.5 31.5q37 0 61.5 -24.5t24.5 -59.5q0 -41 -32.5 -73.5t-73.5 -32.5q-35 0 -60.5 25.5t-25.5 60.5zM1139 1569q0 41 31.5 72.5t74.5 31.5q35 0 59.5 -24.5t24.5 -59.5q0 -41 -31.5 -73.5t-74.5 -32.5q-35 0 -59.5 25.5t-24.5 60.5z" />
<glyph unicode="&#xd7;" horiz-adv-x="1021" d="M98 383l379 307l-235 301l86 70l231 -301l377 307l65 -82l-374 -309l233 -301l-84 -68l-235 301l-375 -307z" />
<glyph unicode="&#xd8;" horiz-adv-x="1566" d="M123 573q0 342 224 579t544 237q223 0 387 -111l80 88h135l-137 -152q166 -166 166 -421q0 -344 -224.5 -581t-543.5 -237q-229 0 -398 117l-84 -92h-135l142 160q-156 161 -156 413zM303 582q0 -178 92 -293l770 862q-117 86 -284 86q-240 0 -409 -187t-169 -468z M467 219q119 -92 297 -92q236 0 406.5 188.5t170.5 466.5q0 178 -102 301z" />
<glyph unicode="&#xd9;" horiz-adv-x="1433" d="M156 430q0 39 10 100l184 836h170l-182 -831q-10 -41 -10 -86q0 -143 95 -232.5t265 -89.5q180 0 279.5 103.5t142.5 304.5l184 831h170l-182 -834q-61 -272 -198.5 -414.5t-395.5 -142.5q-252 0 -392 123t-140 332zM653 1776h160l238 -295h-117z" />
<glyph unicode="&#xda;" horiz-adv-x="1433" d="M156 430q0 39 10 100l184 836h170l-182 -831q-10 -41 -10 -86q0 -143 95 -232.5t265 -89.5q180 0 279.5 103.5t142.5 304.5l184 831h170l-182 -834q-61 -272 -198.5 -414.5t-395.5 -142.5q-252 0 -392 123t-140 332zM813 1481l369 295h164l-412 -295h-121z" />
<glyph unicode="&#xdb;" horiz-adv-x="1433" d="M156 430q0 39 10 100l184 836h170l-182 -831q-10 -41 -10 -86q0 -143 95 -232.5t265 -89.5q180 0 279.5 103.5t142.5 304.5l184 831h170l-182 -834q-61 -272 -198.5 -414.5t-395.5 -142.5q-252 0 -392 123t-140 332zM662 1481l260 295h147l135 -295h-100l-123 217 l-211 -217h-108z" />
<glyph unicode="&#xdc;" horiz-adv-x="1433" d="M156 430q0 39 10 100l184 836h170l-182 -831q-10 -41 -10 -86q0 -143 95 -232.5t265 -89.5q180 0 279.5 103.5t142.5 304.5l184 831h170l-182 -834q-61 -272 -198.5 -414.5t-395.5 -142.5q-252 0 -392 123t-140 332zM647 1569q0 41 33 72.5t74 31.5q37 0 61.5 -24.5 t24.5 -59.5q0 -41 -33 -73.5t-74 -32.5q-35 0 -60.5 25.5t-25.5 60.5zM1071 1569q0 41 32 72.5t75 31.5q35 0 59.5 -24.5t24.5 -59.5q0 -41 -32 -73.5t-75 -32.5q-35 0 -59.5 25.5t-24.5 60.5z" />
<glyph unicode="&#xdd;" horiz-adv-x="1282" d="M209 1366h186l285 -635l563 635h211l-711 -788l-127 -578h-170l127 578zM735 1481l369 295h164l-412 -295h-121z" />
<glyph unicode="&#xde;" horiz-adv-x="1202" d="M49 0l301 1366h170l-53 -244h358q152 0 255.5 -103.5t103.5 -250.5q0 -84 -31 -165t-90 -150.5t-163.5 -111.5t-237.5 -42h-377l-66 -299h-170zM317 451h357q158 0 245 89t87 214q0 92 -68 154.5t-160 62.5h-346z" />
<glyph unicode="&#xdf;" horiz-adv-x="1222" d="M43 0l225 1022q37 162 146.5 263t277.5 101q139 0 248 -69.5t109 -177.5q0 -74 -41 -128.5t-101 -84.5l-118 -59q-58 -28 -99 -65.5t-41 -88.5q0 -47 51.5 -82t124 -59.5t145 -54.5t124 -86t51.5 -134q0 -129 -103.5 -225.5t-281.5 -96.5q-139 0 -236.5 43t-179.5 140 l96 98q121 -156 326 -156q102 0 163.5 53.5t61.5 125.5q0 51 -51 86.5t-123 60.5t-144.5 53.5t-123.5 81.5t-51 129q0 78 40 135.5t97 90t115.5 59t98.5 60.5t40 77q0 61 -61.5 99t-139.5 38q-98 0 -170 -61.5t-96 -165.5l-225 -1022h-154z" />
<glyph unicode="&#xe0;" horiz-adv-x="1177" d="M82 383q0 254 144.5 442.5t373.5 188.5q113 0 204 -48t140 -132l35 155h154l-220 -989h-153l31 141q-133 -166 -326 -166q-174 0 -278.5 109t-104.5 299zM244 412q0 -137 75.5 -218t200.5 -81q88 0 170 48t131 120l99 436q-39 70 -118 115t-181 45q-164 0 -270.5 -139.5 t-106.5 -325.5zM438 1434h160l238 -295h-117z" />
<glyph unicode="&#xe1;" horiz-adv-x="1177" d="M82 383q0 254 144.5 442.5t373.5 188.5q113 0 204 -48t140 -132l35 155h154l-220 -989h-153l31 141q-133 -166 -326 -166q-174 0 -278.5 109t-104.5 299zM244 412q0 -137 75.5 -218t200.5 -81q88 0 170 48t131 120l99 436q-39 70 -118 115t-181 45q-164 0 -270.5 -139.5 t-106.5 -325.5zM594 1139l369 295h163l-411 -295h-121z" />
<glyph unicode="&#xe2;" horiz-adv-x="1177" d="M82 383q0 254 144.5 442.5t373.5 188.5q113 0 204 -48t140 -132l35 155h154l-220 -989h-153l31 141q-133 -166 -326 -166q-174 0 -278.5 109t-104.5 299zM244 412q0 -137 75.5 -218t200.5 -81q88 0 170 48t131 120l99 436q-39 70 -118 115t-181 45q-164 0 -270.5 -139.5 t-106.5 -325.5zM446 1139l261 295h147l135 -295h-100l-123 217l-211 -217h-109z" />
<glyph unicode="&#xe3;" horiz-adv-x="1177" d="M82 383q0 254 144.5 442.5t373.5 188.5q113 0 204 -48t140 -132l35 155h154l-220 -989h-153l31 141q-133 -166 -326 -166q-174 0 -278.5 109t-104.5 299zM244 412q0 -137 75.5 -218t200.5 -81q88 0 170 48t131 120l99 436q-39 70 -118 115t-181 45q-164 0 -270.5 -139.5 t-106.5 -325.5zM401 1147q55 274 234 274q51 0 86 -29.5t50 -64.5t43 -64.5t65 -29.5q84 0 127 176h94q-59 -274 -236 -274q-51 0 -86 29.5t-50 64.5t-43 64.5t-64 29.5q-86 0 -125 -176h-95z" />
<glyph unicode="&#xe4;" horiz-adv-x="1177" d="M82 383q0 254 144.5 442.5t373.5 188.5q113 0 204 -48t140 -132l35 155h154l-220 -989h-153l31 141q-133 -166 -326 -166q-174 0 -278.5 109t-104.5 299zM244 412q0 -137 75.5 -218t200.5 -81q88 0 170 48t131 120l99 436q-39 70 -118 115t-181 45q-164 0 -270.5 -139.5 t-106.5 -325.5zM432 1227q0 41 33 72.5t74 31.5q37 0 61.5 -24.5t24.5 -59.5q0 -41 -33 -73.5t-74 -32.5q-35 0 -60.5 25.5t-25.5 60.5zM856 1227q0 41 32 72.5t75 31.5q35 0 59.5 -24.5t24.5 -59.5q0 -41 -32 -73.5t-75 -32.5q-35 0 -59.5 25.5t-24.5 60.5z" />
<glyph unicode="&#xe5;" horiz-adv-x="1177" d="M82 383q0 254 144.5 442.5t373.5 188.5q113 0 204 -48t140 -132l35 155h154l-220 -989h-153l31 141q-133 -166 -326 -166q-174 0 -278.5 109t-104.5 299zM244 412q0 -137 75.5 -218t200.5 -81q88 0 170 48t131 120l99 436q-39 70 -118 115t-181 45q-164 0 -270.5 -139.5 t-106.5 -325.5zM553 1288q0 88 65.5 154.5t155.5 66.5q80 0 131 -51t51 -131q0 -90 -65.5 -155.5t-155.5 -65.5q-80 0 -131 51t-51 131zM635 1296q0 -47 29.5 -77.5t76.5 -30.5q53 0 93 39t40 92q0 49 -28.5 78.5t-77.5 29.5q-53 0 -93 -39t-40 -92z" />
<glyph unicode="&#xe6;" horiz-adv-x="1921" d="M82 383q0 254 144.5 442.5t373.5 188.5q113 0 204 -48t140 -132l35 155h154l-37 -168q61 80 155.5 136.5t202.5 56.5q184 0 283.5 -115t99.5 -309q0 -82 -18 -146h-799q-2 -8 -2 -47q0 -123 87 -207t247 -84q158 0 276 97l53 -111q-156 -117 -323 -117q-158 0 -257.5 73 t-133.5 194l-54 -242h-153l31 141q-133 -166 -326 -166q-174 0 -278.5 109t-104.5 299zM244 412q0 -137 75.5 -218t200.5 -81q88 0 170 48t131 120l99 436q-39 70 -118 115t-181 45q-164 0 -270.5 -139.5t-106.5 -325.5zM1034 557h656q4 16 4 39q0 129 -75 210t-216 81 q-133 0 -238.5 -97.5t-130.5 -232.5z" />
<glyph unicode="&#xe7;" horiz-adv-x="1013" d="M82 418q0 246 162 421t395 175q260 0 371 -185l-117 -88q-78 135 -250 136q-180 0 -290.5 -135.5t-110.5 -321.5q0 -147 87 -227t222 -80q147 0 250 116l88 -102q-147 -152 -352 -152h-25l-55 -88q31 23 69 23q53 0 86 -32t33 -89q0 -80 -61.5 -130t-159.5 -50 q-139 0 -221 78l55 73q68 -72 170 -71q59 0 92 26.5t33 69.5q0 61 -76 61q-41 0 -71 -34l-60 38l80 136q-158 31 -251 143.5t-93 288.5z" />
<glyph unicode="&#xe8;" horiz-adv-x="1153" d="M82 414q0 248 162 424t395 176q193 0 309.5 -121t116.5 -311q0 -61 -16 -138h-807q0 -4 -1 -21t-1 -26q0 -123 88 -209t247 -86q164 0 285 97l51 -107q-147 -117 -346 -117q-223 0 -353 119t-130 320zM258 557h664q4 16 4 39q0 127 -79 209t-222 82q-133 0 -237.5 -97.5 t-129.5 -232.5zM444 1434h160l238 -295h-117z" />
<glyph unicode="&#xe9;" horiz-adv-x="1153" d="M82 414q0 248 162 424t395 176q193 0 309.5 -121t116.5 -311q0 -61 -16 -138h-807q0 -4 -1 -21t-1 -26q0 -123 88 -209t247 -86q164 0 285 97l51 -107q-147 -117 -346 -117q-223 0 -353 119t-130 320zM258 557h664q4 16 4 39q0 127 -79 209t-222 82q-133 0 -237.5 -97.5 t-129.5 -232.5zM604 1139l369 295h164l-412 -295h-121z" />
<glyph unicode="&#xea;" horiz-adv-x="1153" d="M82 414q0 248 162 424t395 176q193 0 309.5 -121t116.5 -311q0 -61 -16 -138h-807q0 -4 -1 -21t-1 -26q0 -123 88 -209t247 -86q164 0 285 97l51 -107q-147 -117 -346 -117q-223 0 -353 119t-130 320zM258 557h664q4 16 4 39q0 127 -79 209t-222 82q-133 0 -237.5 -97.5 t-129.5 -232.5zM451 1139l260 295h147l135 -295h-100l-123 217l-211 -217h-108z" />
<glyph unicode="&#xeb;" horiz-adv-x="1153" d="M82 414q0 248 162 424t395 176q193 0 309.5 -121t116.5 -311q0 -61 -16 -138h-807q0 -4 -1 -21t-1 -26q0 -123 88 -209t247 -86q164 0 285 97l51 -107q-147 -117 -346 -117q-223 0 -353 119t-130 320zM258 557h664q4 16 4 39q0 127 -79 209t-222 82q-133 0 -237.5 -97.5 t-129.5 -232.5zM438 1227q0 41 33 72.5t74 31.5q37 0 61.5 -24.5t24.5 -59.5q0 -41 -33 -73.5t-74 -32.5q-35 0 -60.5 25.5t-25.5 60.5zM862 1227q0 41 32 72.5t75 31.5q35 0 59.5 -24.5t24.5 -59.5q0 -41 -32 -73.5t-75 -32.5q-35 0 -59.5 25.5t-24.5 60.5z" />
<glyph unicode="&#xec;" horiz-adv-x="460" d="M43 0l219 989h154l-219 -989h-154zM92 1434h160l237 -295h-116z" />
<glyph unicode="&#xed;" horiz-adv-x="460" d="M43 0l219 989h154l-219 -989h-154zM252 1139l369 295h163l-411 -295h-121z" />
<glyph unicode="&#xee;" horiz-adv-x="460" d="M43 0l219 989h154l-219 -989h-154zM100 1139l260 295h148l135 -295h-100l-123 217l-211 -217h-109z" />
<glyph unicode="&#xef;" horiz-adv-x="460" d="M43 0l219 989h154l-219 -989h-154zM86 1227q0 41 33 72.5t74 31.5q37 0 61.5 -24.5t24.5 -59.5q0 -41 -33 -73.5t-74 -32.5q-35 0 -60.5 25.5t-25.5 60.5zM510 1227q0 41 31.5 72.5t74.5 31.5q35 0 59.5 -24.5t24.5 -59.5q0 -41 -31.5 -73.5t-74.5 -32.5 q-35 0 -59.5 25.5t-24.5 60.5z" />
<glyph unicode="&#xf0;" d="M80 397q0 244 150.5 414t361.5 170q109 0 202 -54.5t140 -164.5q-63 197 -246 381l-323 -96l-23 81l274 82l-133 109l109 117q111 -82 199 -174l233 69l23 -82l-193 -57q236 -281 236 -574q0 -270 -155 -456.5t-394 -186.5q-205 0 -333 119t-128 303zM242 412 q0 -133 79.5 -216t219.5 -83q156 0 266.5 129t110.5 311q0 117 -78 204t-226 87q-154 0 -263 -125t-109 -307z" />
<glyph unicode="&#xf1;" horiz-adv-x="1128" d="M43 0l219 989h154l-33 -143q176 168 350 168q133 0 214 -64.5t81 -181.5q0 -41 -12 -82l-152 -686h-153l143 649q12 55 12 68q0 82 -54 121t-140 39q-168 0 -316 -156l-159 -721h-154zM387 1147q55 274 234 274q51 0 85.5 -29.5t50 -64.5t43 -64.5t64.5 -29.5 q82 0 127 176h94q-59 -274 -235 -274q-51 0 -86 29.5t-50.5 64.5t-43 64.5t-64.5 29.5q-86 0 -125 -176h-94z" />
<glyph unicode="&#xf2;" d="M82 414q0 240 158.5 420t392.5 180q209 0 330.5 -121t121.5 -320q0 -240 -158.5 -419t-391.5 -179q-209 0 -331 120t-122 319zM244 420q0 -141 77.5 -224t217.5 -83q164 0 274.5 138t110.5 318q0 141 -78 224.5t-217 83.5q-164 0 -274.5 -138.5t-110.5 -318.5zM449 1434 h159l238 -295h-117z" />
<glyph unicode="&#xf3;" d="M82 414q0 240 158.5 420t392.5 180q209 0 330.5 -121t121.5 -320q0 -240 -158.5 -419t-391.5 -179q-209 0 -331 120t-122 319zM244 420q0 -141 77.5 -224t217.5 -83q164 0 274.5 138t110.5 318q0 141 -78 224.5t-217 83.5q-164 0 -274.5 -138.5t-110.5 -318.5zM604 1139 l369 295h164l-412 -295h-121z" />
<glyph unicode="&#xf4;" d="M82 414q0 240 158.5 420t392.5 180q209 0 330.5 -121t121.5 -320q0 -240 -158.5 -419t-391.5 -179q-209 0 -331 120t-122 319zM244 420q0 -141 77.5 -224t217.5 -83q164 0 274.5 138t110.5 318q0 141 -78 224.5t-217 83.5q-164 0 -274.5 -138.5t-110.5 -318.5zM455 1139 l260 295h147l135 -295h-100l-123 217l-211 -217h-108z" />
<glyph unicode="&#xf5;" d="M82 414q0 240 158.5 420t392.5 180q209 0 330.5 -121t121.5 -320q0 -240 -158.5 -419t-391.5 -179q-209 0 -331 120t-122 319zM244 420q0 -141 77.5 -224t217.5 -83q164 0 274.5 138t110.5 318q0 141 -78 224.5t-217 83.5q-164 0 -274.5 -138.5t-110.5 -318.5zM412 1147 q55 274 233 274q51 0 86 -29.5t50.5 -64.5t43 -64.5t64.5 -29.5q82 0 127 176h94q-59 -274 -236 -274q-51 0 -85.5 29.5t-50 64.5t-43 64.5t-64.5 29.5q-86 0 -125 -176h-94z" />
<glyph unicode="&#xf6;" d="M82 414q0 240 158.5 420t392.5 180q209 0 330.5 -121t121.5 -320q0 -240 -158.5 -419t-391.5 -179q-209 0 -331 120t-122 319zM244 420q0 -141 77.5 -224t217.5 -83q164 0 274.5 138t110.5 318q0 141 -78 224.5t-217 83.5q-164 0 -274.5 -138.5t-110.5 -318.5zM442 1227 q0 41 33 72.5t74 31.5q37 0 61.5 -24.5t24.5 -59.5q0 -41 -33 -73.5t-74 -32.5q-35 0 -60.5 25.5t-25.5 60.5zM866 1227q0 41 32 72.5t75 31.5q35 0 59.5 -24.5t24.5 -59.5q0 -41 -32 -73.5t-75 -32.5q-35 0 -59.5 25.5t-24.5 60.5z" />
<glyph unicode="&#xf7;" horiz-adv-x="1046" d="M90 637l23 106h927l-22 -106h-928zM383 289q0 41 30.5 70.5t71.5 29.5q37 0 61.5 -25.5t24.5 -60.5q0 -43 -29.5 -71.5t-72.5 -28.5q-35 0 -60.5 25.5t-25.5 60.5zM555 1069q0 41 30.5 71.5t73.5 30.5q35 0 59.5 -25.5t24.5 -60.5q0 -43 -29.5 -72.5t-72.5 -29.5 q-35 0 -60.5 25.5t-25.5 60.5z" />
<glyph unicode="&#xf8;" d="M16 0l146 143q-80 106 -80 271q0 240 158.5 420t392.5 180q188 0 307 -101l78 76h119l-140 -137q88 -113 88 -279q0 -240 -158.5 -419t-391.5 -179q-195 0 -318 107l-82 -82h-119zM244 420q0 -92 35 -162l552 547q-78 72 -202 72q-164 0 -274.5 -138.5t-110.5 -318.5z M328 188q76 -76 211 -75q164 0 274.5 138t110.5 318q0 98 -41 170z" />
<glyph unicode="&#xf9;" horiz-adv-x="1128" d="M100 221q0 31 11 82l151 686h154l-144 -647q-10 -51 -10 -70q0 -160 205 -159q150 0 305 155l158 721h153l-219 -989h-153l32 143q-176 -168 -348 -168q-135 0 -215 64.5t-80 181.5zM426 1434h160l237 -295h-116z" />
<glyph unicode="&#xfa;" horiz-adv-x="1128" d="M100 221q0 31 11 82l151 686h154l-144 -647q-10 -51 -10 -70q0 -160 205 -159q150 0 305 155l158 721h153l-219 -989h-153l32 143q-176 -168 -348 -168q-135 0 -215 64.5t-80 181.5zM584 1139l368 295h164l-411 -295h-121z" />
<glyph unicode="&#xfb;" horiz-adv-x="1128" d="M100 221q0 31 11 82l151 686h154l-144 -647q-10 -51 -10 -70q0 -160 205 -159q150 0 305 155l158 721h153l-219 -989h-153l32 143q-176 -168 -348 -168q-135 0 -215 64.5t-80 181.5zM434 1139l260 295h148l135 -295h-100l-123 217l-211 -217h-109z" />
<glyph unicode="&#xfc;" horiz-adv-x="1128" d="M100 221q0 31 11 82l151 686h154l-144 -647q-10 -51 -10 -70q0 -160 205 -159q150 0 305 155l158 721h153l-219 -989h-153l32 143q-176 -168 -348 -168q-135 0 -215 64.5t-80 181.5zM422 1227q0 41 32.5 72.5t73.5 31.5q37 0 61.5 -24.5t24.5 -59.5q0 -41 -32.5 -73.5 t-73.5 -32.5q-35 0 -60.5 25.5t-25.5 60.5zM846 1227q0 41 31.5 72.5t74.5 31.5q35 0 59.5 -24.5t24.5 -59.5q0 -41 -31.5 -73.5t-74.5 -32.5q-35 0 -59.5 25.5t-24.5 60.5z" />
<glyph unicode="&#xfd;" horiz-adv-x="1003" d="M-94 -379l53 137q37 -16 96 -16q82 0 148 98l100 154l-188 995h161l148 -811l510 811h172l-762 -1190q-129 -201 -309 -200q-74 -1 -129 22zM516 1139l369 295h164l-412 -295h-121z" />
<glyph unicode="&#xfe;" d="M-41 -377l385 1743h154l-115 -518q135 166 328 166q172 0 277.5 -108.5t105.5 -299.5q0 -252 -144.5 -441.5t-374.5 -189.5q-115 0 -203.5 48.5t-140.5 132.5l-118 -533h-154zM256 272q39 -72 118 -115.5t181 -43.5q164 0 270.5 139t106.5 326q0 137 -76 218t-201 81 q-90 0 -169.5 -48.5t-133.5 -121.5z" />
<glyph unicode="&#xff;" horiz-adv-x="1003" d="M-94 -379l53 137q37 -16 96 -16q82 0 148 98l100 154l-188 995h161l148 -811l510 811h172l-762 -1190q-129 -201 -309 -200q-74 -1 -129 22zM354 1227q0 41 33 72.5t74 31.5q37 0 61.5 -24.5t24.5 -59.5q0 -41 -33 -73.5t-74 -32.5q-35 0 -60.5 25.5t-25.5 60.5z M778 1227q0 41 32 72.5t75 31.5q35 0 59.5 -24.5t24.5 -59.5q0 -41 -32 -73.5t-75 -32.5q-35 0 -59.5 25.5t-24.5 60.5z" />
<glyph unicode="&#x152;" horiz-adv-x="2263" d="M123 573q0 354 226 583.5t544 229.5q375 0 489 -317l64 297h897l-33 -152h-725l-98 -440h711l-33 -151h-713l-104 -471h727l-33 -152h-897l45 209q-176 -233 -492 -234q-254 0 -414.5 168t-160.5 430zM303 582q0 -207 124 -331t323 -124q145 0 276 76t211 209l100 454 q-31 176 -148.5 272.5t-295.5 96.5q-244 0 -417 -188.5t-173 -464.5z" />
<glyph unicode="&#x153;" horiz-adv-x="1970" d="M82 414q0 238 156.5 419t390.5 181q166 0 269 -92.5t122 -190.5q190 283 442 283q186 0 305 -116t119 -316q0 -59 -18 -138h-797q-4 -16 -4 -47q0 -123 88 -209t246 -86q162 0 278 97l54 -107q-143 -117 -342 -117q-174 0 -288 90.5t-136 192.5q-37 -57 -67 -93t-84 -86 t-127 -77t-159 -27q-203 0 -325.5 118t-122.5 321zM244 420q0 -141 76.5 -224t214.5 -83q160 0 270 135t110 321q0 154 -82.5 231t-207.5 77q-158 0 -269.5 -135.5t-111.5 -321.5zM1087 557h656q2 10 2 39q0 127 -77 209t-218 82q-139 0 -243 -104.5t-120 -225.5z" />
<glyph unicode="&#x178;" horiz-adv-x="1282" d="M209 1366h186l285 -635l563 635h211l-711 -788l-127 -578h-170l127 578zM573 1569q0 41 33 72.5t74 31.5q37 0 61.5 -24.5t24.5 -59.5q0 -41 -33 -73.5t-74 -32.5q-35 0 -60.5 25.5t-25.5 60.5zM997 1569q0 41 32 72.5t75 31.5q35 0 59.5 -24.5t24.5 -59.5 q0 -41 -32 -73.5t-75 -32.5q-35 0 -59.5 25.5t-24.5 60.5z" />
<glyph unicode="&#x2c6;" horiz-adv-x="542" d="M141 1139l260 295h148l135 -295h-100l-123 217l-211 -217h-109z" />
<glyph unicode="&#x2dc;" horiz-adv-x="641" d="M143 1147q55 274 234 274q51 0 86 -29.5t50 -64.5t43 -64.5t65 -29.5q84 0 127 176h94q-59 -274 -236 -274q-51 0 -86 29.5t-50 64.5t-43 64.5t-65 29.5q-86 0 -124 -176h-95z" />
<glyph unicode="&#x2013;" horiz-adv-x="1214" d="M45 428l29 135h1091l-28 -135h-1092z" />
<glyph unicode="&#x2014;" horiz-adv-x="1705" d="M45 428l29 135h1583l-29 -135h-1583z" />
<glyph unicode="&#x2018;" horiz-adv-x="471" d="M221 1055q0 94 69.5 188t168.5 143l63 -67q-137 -70 -172 -172q2 2 17 2q37 0 62.5 -25.5t25.5 -66.5q0 -49 -38 -85t-87 -36q-45 0 -77 31t-32 88z" />
<glyph unicode="&#x2019;" horiz-adv-x="471" d="M225 1001q137 70 172 173h-16q-37 0 -62.5 25.5t-25.5 66.5q0 49 37 84.5t86 35.5q47 0 77.5 -31.5t30.5 -86.5q0 -94 -69.5 -188.5t-167.5 -145.5z" />
<glyph unicode="&#x201a;" horiz-adv-x="471" d="M-37 -180q137 70 172 172h-16q-37 0 -62.5 24.5t-25.5 65.5q0 49 36.5 86t86.5 37q47 0 77.5 -32t30.5 -89q0 -92 -68.5 -186.5t-166.5 -145.5z" />
<glyph unicode="&#x201c;" horiz-adv-x="798" d="M238 1055q0 94 69.5 188t167.5 143l62 -67q-137 -70 -172 -172q2 2 16 2q37 0 62.5 -25.5t25.5 -66.5q0 -49 -37 -85t-86 -36q-47 0 -77.5 31t-30.5 88zM563 1055q0 94 69.5 188t168.5 143l61 -67q-133 -68 -172 -172q4 2 19 2q35 0 60.5 -25.5t25.5 -66.5q0 -49 -37 -85 t-86 -36q-47 0 -78 31t-31 88z" />
<glyph unicode="&#x201d;" horiz-adv-x="798" d="M225 1001q137 70 172 173h-16q-37 0 -62.5 25.5t-25.5 66.5q0 49 37 84.5t86 35.5q47 0 77.5 -31.5t30.5 -86.5q0 -94 -69.5 -188.5t-167.5 -145.5zM553 1001q133 68 172 173h-18q-35 0 -60.5 25.5t-25.5 66.5q0 49 36.5 85t85.5 36q47 0 78 -32t31 -87 q0 -94 -69.5 -188.5t-168.5 -145.5z" />
<glyph unicode="&#x201e;" horiz-adv-x="798" d="M-37 -180q137 70 172 172h-16q-37 0 -62.5 24.5t-25.5 65.5q0 49 36.5 86t86.5 37q47 0 77.5 -32t30.5 -89q0 -92 -68.5 -186.5t-166.5 -145.5zM289 -180q59 29 107 76t65 96h-17q-37 0 -61.5 24.5t-24.5 65.5q0 49 37 86t86 37q45 0 77 -32t32 -89q0 -92 -69.5 -186.5 t-168.5 -145.5z" />
<glyph unicode="&#x2022;" horiz-adv-x="733" d="M143 475q0 98 75 170t173 72q84 0 141.5 -57.5t57.5 -141.5q0 -98 -75 -170t-173 -72q-84 0 -141.5 57.5t-57.5 141.5z" />
<glyph unicode="&#x2026;" horiz-adv-x="1415" d="M31 82q0 51 36.5 87t88.5 36q43 0 72.5 -31t29.5 -74q0 -49 -37 -84.5t-86 -35.5q-45 0 -74.5 29.5t-29.5 72.5zM504 82q0 51 35.5 87t87.5 36q43 0 72.5 -31t29.5 -74q0 -51 -36 -85.5t-87 -34.5q-43 0 -72.5 29.5t-29.5 72.5zM975 82q0 51 36 87t87 36q43 0 72.5 -31 t29.5 -74q0 -51 -36 -85.5t-87 -34.5q-43 0 -72.5 29.5t-29.5 72.5z" />
<glyph unicode="&#x2039;" horiz-adv-x="604" d="M59 498l410 362h162l-418 -373l238 -358h-146z" />
<glyph unicode="&#x203a;" horiz-adv-x="604" d="M-23 129l418 373l-237 358h145l246 -368l-410 -363h-162z" />
<glyph unicode="&#x20ac;" horiz-adv-x="1423" d="M59 485l25 107h88q0 86 21 184h-70l24 107h78q88 231 286 368.5t429 137.5q199 0 342 -86t215 -236l-162 -63q-119 233 -405 233q-160 0 -301.5 -95t-214.5 -259h645l-25 -107h-657q-25 -86 -25 -184h641l-24 -107h-609q29 -164 149 -261t304 -97q201 0 367 156l125 -95 q-199 -213 -502 -213q-252 0 -424 138.5t-203 371.5h-117z" />
<glyph unicode="&#x2122;" horiz-adv-x="929" d="M215 1313l10 53h312l-11 -53h-127l-88 -398h-57l88 398h-127zM512 915l98 451h88l60 -328l203 328h88l-99 -451h-57l82 373l-236 -373h-16l-72 373l-82 -373h-57z" />
<glyph unicode="&#xe000;" horiz-adv-x="990" d="M0 990h990v-990h-990v990z" />
<glyph unicode="&#xfb01;" horiz-adv-x="1042" d="M86 0l188 854h-163l30 135h164l17 76q72 322 323 321q102 0 178 -47l-59 -110q-39 31 -107 31q-141 0 -182 -195l-16 -76h200l-30 -135h-201l-188 -854h-154zM623 0l219 989h153l-219 -989h-153zM866 1221q0 51 37 83.5t80 32.5q39 0 66.5 -26.5t27.5 -63.5 q0 -51 -36.5 -84t-79.5 -33q-41 0 -68 26t-27 65z" />
<glyph unicode="&#xfb02;" horiz-adv-x="1042" d="M86 0l188 854h-163l30 135h164l17 76q72 322 323 321q102 0 178 -47l-59 -110q-39 31 -107 31q-141 0 -182 -195l-16 -76h200l-30 -135h-201l-188 -854h-154zM623 0l301 1366h153l-301 -1366h-153z" />
<glyph unicode="&#xfb03;" horiz-adv-x="1622" d="M86 0l188 856h-163l30 133h164l17 76q72 322 329 321q131 0 215 -83l-82 -93q-49 49 -127 50q-141 0 -182 -195l-16 -76h200l-30 -133h-201l-188 -856h-154zM666 0l188 854h-164l31 135h164l16 76q72 322 324 321q102 0 178 -47l-60 -110q-39 31 -106 31 q-141 0 -182 -195l-17 -76h201l-31 -135h-200l-189 -854h-153zM1204 0l219 989h154l-219 -989h-154zM1448 1221q0 51 37 83.5t80 32.5q39 0 66.5 -26.5t27.5 -63.5q0 -51 -37 -84t-80 -33q-41 0 -67.5 26t-26.5 65z" />
<glyph unicode="&#xfb04;" horiz-adv-x="1622" d="M86 0l188 856h-163l30 133h164l17 76q72 322 329 321q131 0 215 -83l-82 -93q-49 49 -127 50q-141 0 -182 -195l-16 -76h200l-30 -133h-201l-188 -856h-154zM666 0l188 854h-164l31 135h164l16 76q72 322 324 321q102 0 178 -47l-60 -110q-39 31 -106 31 q-141 0 -182 -195l-17 -76h201l-31 -135h-200l-189 -854h-153zM1204 0l301 1366h154l-301 -1366h-154z" />
</font>
</defs>
</svg>
